<svg width="1440" height="970" viewBox="0 0 1440 970" fill="none" xmlns="http://www.w3.org/2000/svg">
<g opacity="0.05">
<g clip-path="url(#clip0_46_276)">
<path d="M-9 288H283.44C287.617 288 291 289.804 291 292.032V293.968C291 296.196 287.617 298 283.44 298H-9V288Z" fill="url(#paint0_linear_46_276)"/>
</g>
<g clip-path="url(#clip1_46_276)">
<path d="M-94 448H198.44C202.617 448 206 449.804 206 452.032V453.968C206 456.196 202.617 458 198.44 458H-94V448Z" fill="url(#paint1_linear_46_276)"/>
</g>
<g clip-path="url(#clip2_46_276)">
<path d="M-88 352H204.44C208.617 352 212 353.804 212 356.032V357.968C212 360.196 208.617 362 204.44 362H-88V352Z" fill="url(#paint2_linear_46_276)"/>
</g>
<g clip-path="url(#clip3_46_276)">
<path d="M-166 800H196.626C201.805 800 206 801.804 206 804.032V805.968C206 808.196 201.805 810 196.626 810H-166V800Z" fill="url(#paint3_linear_46_276)"/>
</g>
<g clip-path="url(#clip4_46_276)">
<path d="M-122 672H170.44C174.617 672 178 673.804 178 676.032V677.968C178 680.196 174.617 682 170.44 682H-122V672Z" fill="url(#paint4_linear_46_276)"/>
</g>
<g clip-path="url(#clip5_46_276)">
<path d="M-141 192H151.44C155.617 192 159 193.804 159 196.032V197.968C159 200.196 155.617 202 151.44 202H-141V192Z" fill="url(#paint5_linear_46_276)"/>
</g>
<g clip-path="url(#clip6_46_276)">
<path d="M-94 736H198.44C202.617 736 206 737.804 206 740.032V741.968C206 744.196 202.617 746 198.44 746H-94V736Z" fill="url(#paint6_linear_46_276)"/>
</g>
<g clip-path="url(#clip7_46_276)">
<path d="M-69 512H281.929C286.941 512 291 513.804 291 516.032V517.968C291 520.196 286.941 522 281.929 522H-69V512Z" fill="url(#paint7_linear_46_276)"/>
</g>
<g clip-path="url(#clip8_46_276)">
<path d="M-99 320H251.929C256.941 320 261 321.804 261 324.032V325.968C261 328.196 256.941 330 251.929 330H-99V320Z" fill="url(#paint8_linear_46_276)"/>
</g>
<g clip-path="url(#clip9_46_276)">
<path d="M-39 608H262.214C266.516 608 270 609.804 270 612.032V613.968C270 616.196 266.516 618 262.214 618H-39V608Z" fill="url(#paint9_linear_46_276)"/>
</g>
<g clip-path="url(#clip10_46_276)">
<path d="M-141 576H151.44C155.617 576 159 577.804 159 580.032V581.968C159 584.196 155.617 586 151.44 586H-141V576Z" fill="url(#paint10_linear_46_276)"/>
</g>
<g clip-path="url(#clip11_46_276)">
<path d="M-110 384H182.44C186.617 384 190 385.804 190 388.032V389.968C190 392.196 186.617 394 182.44 394H-110V384Z" fill="url(#paint11_linear_46_276)"/>
</g>
<g clip-path="url(#clip12_46_276)">
<path d="M-58 640H234.44C238.617 640 242 641.804 242 644.032V645.968C242 648.196 238.617 650 234.44 650H-58V640Z" fill="url(#paint12_linear_46_276)"/>
</g>
<g clip-path="url(#clip13_46_276)">
<path d="M-141 768H151.44C155.617 768 159 769.804 159 772.032V773.968C159 776.196 155.617 778 151.44 778H-141V768Z" fill="url(#paint13_linear_46_276)"/>
</g>
<g clip-path="url(#clip14_46_276)">
<path d="M-94 224H198.44C202.617 224 206 225.804 206 228.032V229.968C206 232.196 202.617 234 198.44 234H-94V224Z" fill="url(#paint14_linear_46_276)"/>
</g>
<g clip-path="url(#clip15_46_276)">
<path d="M-166 480H126.44C130.617 480 134 481.804 134 484.032V485.968C134 488.196 130.617 490 126.44 490H-166V480Z" fill="url(#paint15_linear_46_276)"/>
</g>
<g clip-path="url(#clip16_46_276)">
<path d="M-69 416H223.44C227.617 416 231 417.804 231 420.032V421.968C231 424.196 227.617 426 223.44 426H-69V416Z" fill="url(#paint16_linear_46_276)"/>
</g>
<g clip-path="url(#clip17_46_276)">
<path d="M-55 256H237.44C241.617 256 245 257.804 245 260.032V261.968C245 264.196 241.617 266 237.44 266H-55V256Z" fill="url(#paint17_linear_46_276)"/>
</g>
<g clip-path="url(#clip18_46_276)">
<path d="M-105 704H247.878C252.918 704 257 705.804 257 708.032V709.968C257 712.196 252.918 714 247.878 714H-105V704Z" fill="url(#paint18_linear_46_276)"/>
</g>
<g clip-path="url(#clip19_46_276)">
<path d="M-131 544H221.878C226.918 544 231 545.804 231 548.032V549.968C231 552.196 226.918 554 221.878 554H-131V544Z" fill="url(#paint19_linear_46_276)"/>
</g>
<g clip-path="url(#clip20_46_276)">
<path d="M-58 160H234.44C238.617 160 242 161.804 242 164.032V165.968C242 168.196 238.617 170 234.44 170H-58V160Z" fill="url(#paint20_linear_46_276)"/>
</g>
<g clip-path="url(#clip21_46_276)">
<path d="M-30 128H262.44C266.617 128 270 129.804 270 132.032V133.968C270 136.196 266.617 138 262.44 138H-30V128Z" fill="url(#paint21_linear_46_276)"/>
</g>
<g clip-path="url(#clip22_46_276)">
<path d="M-88 32H204.44C208.617 32 212 33.8044 212 36.0323V37.9677C212 40.1956 208.617 42 204.44 42H-88V32Z" fill="url(#paint22_linear_46_276)"/>
</g>
<g clip-path="url(#clip23_46_276)">
<path d="M-124 64H226.929C231.941 64 236 65.8044 236 68.0323V69.9677C236 72.1956 231.941 74 226.929 74H-124V64Z" fill="url(#paint23_linear_46_276)"/>
</g>
<g clip-path="url(#clip24_46_276)">
<path d="M-110 96H182.44C186.617 96 190 97.8044 190 100.032V101.968C190 104.196 186.617 106 182.44 106H-110V96Z" fill="url(#paint24_linear_46_276)"/>
</g>
<g clip-path="url(#clip25_46_276)">
<path d="M-180 864H112.44C116.617 864 120 865.804 120 868.032V869.968C120 872.196 116.617 874 112.44 874H-180V864Z" fill="url(#paint25_linear_46_276)"/>
</g>
<g clip-path="url(#clip26_46_276)">
<path d="M-252 960H90.1553C95.042 960 99 961.804 99 964.032V965.968C99 968.196 95.042 970 90.1553 970H-252V960Z" fill="url(#paint26_linear_46_276)"/>
</g>
<g clip-path="url(#clip27_46_276)">
<path d="M-221 832H131.878C136.918 832 141 833.804 141 836.032V837.968C141 840.196 136.918 842 131.878 842H-221V832Z" fill="url(#paint27_linear_46_276)"/>
</g>
<path d="M-242 928H110.878C115.918 928 120 929.804 120 932.032V933.968C120 936.196 115.918 938 110.878 938H-242V928Z" fill="url(#paint28_linear_46_276)"/>
<g clip-path="url(#clip28_46_276)">
<path d="M-110 0H182.44C186.617 0 190 1.80444 190 4.03226V5.96774C190 8.19556 186.617 10 182.44 10H-110V0Z" fill="url(#paint29_linear_46_276)"/>
</g>
<g clip-path="url(#clip29_46_276)">
<path d="M-14 896H84.455C85.8611 896 87 897.804 87 900.032V901.968C87 904.196 85.8611 906 84.455 906H-14V896Z" fill="url(#paint30_linear_46_276)"/>
</g>
<g clip-path="url(#clip30_46_276)">
<path d="M1524 70L1231.56 70C1227.38 70 1224 68.1956 1224 65.9677V64.0323C1224 61.8044 1227.38 60 1231.56 60L1524 60V70Z" fill="url(#paint31_linear_46_276)"/>
</g>
<g clip-path="url(#clip31_46_276)">
<path d="M1659 220L1366.56 220C1362.38 220 1359 218.196 1359 215.968V214.032C1359 211.804 1362.38 210 1366.56 210L1659 210V220Z" fill="url(#paint32_linear_46_276)"/>
</g>
<g clip-path="url(#clip32_46_276)">
<path d="M1472 370H1179.56C1175.38 370 1172 368.196 1172 365.968V364.032C1172 361.804 1175.38 360 1179.56 360H1472V370Z" fill="url(#paint33_linear_46_276)"/>
</g>
<g clip-path="url(#clip33_46_276)">
<path d="M1531 490H1238.56C1234.38 490 1231 488.196 1231 485.968V484.032C1231 481.804 1234.38 480 1238.56 480H1531V490Z" fill="url(#paint34_linear_46_276)"/>
</g>
<g clip-path="url(#clip34_46_276)">
<path d="M1541 730H1248.56C1244.38 730 1241 728.196 1241 725.968V724.032C1241 721.804 1244.38 720 1248.56 720H1541V730Z" fill="url(#paint35_linear_46_276)"/>
</g>
<g clip-path="url(#clip35_46_276)">
<path d="M1581 790H1288.56C1284.38 790 1281 788.196 1281 785.968V784.032C1281 781.804 1284.38 780 1288.56 780H1581V790Z" fill="url(#paint36_linear_46_276)"/>
</g>
<g clip-path="url(#clip36_46_276)">
<path d="M1556 190L1263.56 190C1259.38 190 1256 188.196 1256 185.968V184.032C1256 181.804 1259.38 180 1263.56 180L1556 180V190Z" fill="url(#paint37_linear_46_276)"/>
</g>
<g clip-path="url(#clip37_46_276)">
<path d="M1606 280H1313.56C1309.38 280 1306 278.196 1306 275.968V274.032C1306 271.804 1309.38 270 1313.56 270H1606V280Z" fill="url(#paint38_linear_46_276)"/>
</g>
<g clip-path="url(#clip38_46_276)">
<path d="M1636 100L1343.56 100C1339.38 100 1336 98.1956 1336 95.9677V94.0323C1336 91.8044 1339.38 90 1343.56 90L1636 90V100Z" fill="url(#paint39_linear_46_276)"/>
</g>
<g clip-path="url(#clip39_46_276)">
<path d="M1531 400H1238.56C1234.38 400 1231 398.196 1231 395.968V394.032C1231 391.804 1234.38 390 1238.56 390H1531V400Z" fill="url(#paint40_linear_46_276)"/>
</g>
<g clip-path="url(#clip40_46_276)">
<path d="M1592 520H1299.56C1295.38 520 1292 518.196 1292 515.968V514.032C1292 511.804 1295.38 510 1299.56 510H1592V520Z" fill="url(#paint41_linear_46_276)"/>
</g>
<g clip-path="url(#clip41_46_276)">
<path d="M1556 640H1263.56C1259.38 640 1256 638.196 1256 635.968V634.032C1256 631.804 1259.38 630 1263.56 630H1556V640Z" fill="url(#paint42_linear_46_276)"/>
</g>
<g clip-path="url(#clip42_46_276)">
<path d="M1636 610H1343.56C1339.38 610 1336 608.196 1336 605.968V604.032C1336 601.804 1339.38 600 1343.56 600H1636V610Z" fill="url(#paint43_linear_46_276)"/>
</g>
<g clip-path="url(#clip43_46_276)">
<path d="M1562 760H1269.56C1265.38 760 1262 758.196 1262 755.968V754.032C1262 751.804 1265.38 750 1269.56 750H1562V760Z" fill="url(#paint44_linear_46_276)"/>
</g>
<g clip-path="url(#clip44_46_276)">
<path d="M1636 880H1343.56C1339.38 880 1336 878.196 1336 875.968V874.032C1336 871.804 1339.38 870 1343.56 870H1636V880Z" fill="url(#paint45_linear_46_276)"/>
</g>
<g clip-path="url(#clip45_46_276)">
<path d="M1590 340H1297.56C1293.38 340 1290 338.196 1290 335.968V334.032C1290 331.804 1293.38 330 1297.56 330H1590V340Z" fill="url(#paint46_linear_46_276)"/>
</g>
<g clip-path="url(#clip46_46_276)">
<path d="M1581 460H1288.56C1284.38 460 1281 458.196 1281 455.968V454.032C1281 451.804 1284.38 450 1288.56 450H1581V460Z" fill="url(#paint47_linear_46_276)"/>
</g>
<g clip-path="url(#clip47_46_276)">
<path d="M1606 670H1313.56C1309.38 670 1306 668.196 1306 665.968V664.032C1306 661.804 1309.38 660 1313.56 660H1606V670Z" fill="url(#paint48_linear_46_276)"/>
</g>
<g clip-path="url(#clip48_46_276)">
<path d="M1606 580H1313.56C1309.38 580 1306 578.196 1306 575.968V574.032C1306 571.804 1309.38 570 1313.56 570H1606V580Z" fill="url(#paint49_linear_46_276)"/>
</g>
<g clip-path="url(#clip49_46_276)">
<path d="M1518 820H1225.56C1221.38 820 1218 818.196 1218 815.968V814.032C1218 811.804 1221.38 810 1225.56 810H1518V820Z" fill="url(#paint50_linear_46_276)"/>
</g>
<g clip-path="url(#clip50_46_276)">
<path d="M1659 910H1366.56C1362.38 910 1359 908.196 1359 905.968V904.032C1359 901.804 1362.38 900 1366.56 900H1659V910Z" fill="url(#paint51_linear_46_276)"/>
</g>
<g clip-path="url(#clip51_46_276)">
<path d="M1603 40L1310.56 40C1306.38 40 1303 38.1956 1303 35.9677V34.0323C1303 31.8044 1306.38 30 1310.56 30L1603 30V40Z" fill="url(#paint52_linear_46_276)"/>
</g>
<g clip-path="url(#clip52_46_276)">
<path d="M1531 160L1238.56 160C1234.38 160 1231 158.196 1231 155.968V154.032C1231 151.804 1234.38 150 1238.56 150L1531 150V160Z" fill="url(#paint53_linear_46_276)"/>
</g>
<g clip-path="url(#clip53_46_276)">
<path d="M1556 430H1263.56C1259.38 430 1256 428.196 1256 425.968V424.032C1256 421.804 1259.38 420 1263.56 420H1556V430Z" fill="url(#paint54_linear_46_276)"/>
</g>
<g clip-path="url(#clip54_46_276)">
<path d="M1509 550H1216.56C1212.38 550 1209 548.196 1209 545.968V544.032C1209 541.804 1212.38 540 1216.56 540H1509V550Z" fill="url(#paint55_linear_46_276)"/>
</g>
<g clip-path="url(#clip55_46_276)">
<path d="M1456 940H1328.3C1326.48 940 1325 938.196 1325 935.968V934.032C1325 931.804 1326.48 930 1328.3 930H1456V940Z" fill="url(#paint56_linear_46_276)"/>
</g>
<g clip-path="url(#clip56_46_276)">
<path d="M1581 700H1288.56C1284.38 700 1281 698.196 1281 695.968V694.032C1281 691.804 1284.38 690 1288.56 690H1581V700Z" fill="url(#paint57_linear_46_276)"/>
</g>
<g clip-path="url(#clip57_46_276)">
<path d="M1603 130L1310.56 130C1306.38 130 1303 128.196 1303 125.968V124.032C1303 121.804 1306.38 120 1310.56 120L1603 120V130Z" fill="url(#paint58_linear_46_276)"/>
</g>
<g clip-path="url(#clip58_46_276)">
<path d="M1625 250L1332.56 250C1328.38 250 1325 248.196 1325 245.968V244.032C1325 241.804 1328.38 240 1332.56 240L1625 240V250Z" fill="url(#paint59_linear_46_276)"/>
</g>
<g clip-path="url(#clip59_46_276)">
<path d="M1648 310H1355.56C1351.38 310 1348 308.196 1348 305.968V304.032C1348 301.804 1351.38 300 1355.56 300H1648V310Z" fill="url(#paint60_linear_46_276)"/>
</g>
<g clip-path="url(#clip60_46_276)">
<path d="M1668 850H1375.56C1371.38 850 1368 848.196 1368 845.968V844.032C1368 841.804 1371.38 840 1375.56 840H1668V850Z" fill="url(#paint61_linear_46_276)"/>
</g>
<g clip-path="url(#clip61_46_276)">
<path d="M1648 970H1355.56C1351.38 970 1348 968.196 1348 965.968V964.032C1348 961.804 1351.38 960 1355.56 960H1648V970Z" fill="url(#paint62_linear_46_276)"/>
</g>
<g clip-path="url(#clip62_46_276)">
<path d="M1625 10L1332.56 10C1328.38 10 1325 8.19556 1325 5.96774V4.03226C1325 1.80444 1328.38 0 1332.56 0L1625 0V10Z" fill="url(#paint63_linear_46_276)"/>
</g>
</g>
<defs>
<linearGradient id="paint0_linear_46_276" x1="-9" y1="293" x2="291" y2="293" gradientUnits="userSpaceOnUse">
<stop stop-color="#47C7F0"/>
<stop offset="0.31" stop-color="#68CFF1"/>
<stop offset="1" stop-color="#B1E2F5"/>
</linearGradient>
<linearGradient id="paint1_linear_46_276" x1="-94" y1="453" x2="206" y2="453" gradientUnits="userSpaceOnUse">
<stop stop-color="#47C7F0"/>
<stop offset="0.31" stop-color="#68CFF1"/>
<stop offset="1" stop-color="#B1E2F5"/>
</linearGradient>
<linearGradient id="paint2_linear_46_276" x1="-88" y1="357" x2="212" y2="357" gradientUnits="userSpaceOnUse">
<stop stop-color="#47C7F0"/>
<stop offset="0.31" stop-color="#68CFF1"/>
<stop offset="1" stop-color="#B1E2F5"/>
</linearGradient>
<linearGradient id="paint3_linear_46_276" x1="-166" y1="805" x2="206" y2="805" gradientUnits="userSpaceOnUse">
<stop stop-color="#47C7F0"/>
<stop offset="0.31" stop-color="#68CFF1"/>
<stop offset="1" stop-color="#B1E2F5"/>
</linearGradient>
<linearGradient id="paint4_linear_46_276" x1="-122" y1="677" x2="178" y2="677" gradientUnits="userSpaceOnUse">
<stop stop-color="#47C7F0"/>
<stop offset="0.31" stop-color="#68CFF1"/>
<stop offset="1" stop-color="#B1E2F5"/>
</linearGradient>
<linearGradient id="paint5_linear_46_276" x1="-141" y1="197" x2="159" y2="197" gradientUnits="userSpaceOnUse">
<stop stop-color="#47C7F0"/>
<stop offset="0.31" stop-color="#68CFF1"/>
<stop offset="1" stop-color="#B1E2F5"/>
</linearGradient>
<linearGradient id="paint6_linear_46_276" x1="-94" y1="741" x2="206" y2="741" gradientUnits="userSpaceOnUse">
<stop stop-color="#7E1416"/>
<stop offset="0.77" stop-color="#D32D20"/>
<stop offset="1" stop-color="#EE3624"/>
</linearGradient>
<linearGradient id="paint7_linear_46_276" x1="-69" y1="517" x2="291" y2="517" gradientUnits="userSpaceOnUse">
<stop stop-color="#7E1416"/>
<stop offset="0.77" stop-color="#D32D20"/>
<stop offset="1" stop-color="#EE3624"/>
</linearGradient>
<linearGradient id="paint8_linear_46_276" x1="-99" y1="325" x2="261" y2="325" gradientUnits="userSpaceOnUse">
<stop stop-color="#7E1416"/>
<stop offset="0.77" stop-color="#D32D20"/>
<stop offset="1" stop-color="#EE3624"/>
</linearGradient>
<linearGradient id="paint9_linear_46_276" x1="-39" y1="613" x2="270" y2="613" gradientUnits="userSpaceOnUse">
<stop stop-color="#7E1416"/>
<stop offset="0.77" stop-color="#D32D20"/>
<stop offset="1" stop-color="#EE3624"/>
</linearGradient>
<linearGradient id="paint10_linear_46_276" x1="-141" y1="581" x2="159" y2="581" gradientUnits="userSpaceOnUse">
<stop stop-color="#2DB34A"/>
<stop offset="0.19" stop-color="#47B955"/>
<stop offset="0.55" stop-color="#72C468"/>
<stop offset="0.83" stop-color="#8DCA73"/>
<stop offset="1" stop-color="#97CD78"/>
</linearGradient>
<linearGradient id="paint11_linear_46_276" x1="-110" y1="389" x2="190" y2="389" gradientUnits="userSpaceOnUse">
<stop stop-color="#2DB34A"/>
<stop offset="0.19" stop-color="#47B955"/>
<stop offset="0.55" stop-color="#72C468"/>
<stop offset="0.83" stop-color="#8DCA73"/>
<stop offset="1" stop-color="#97CD78"/>
</linearGradient>
<linearGradient id="paint12_linear_46_276" x1="-58" y1="645" x2="242" y2="645" gradientUnits="userSpaceOnUse">
<stop stop-color="#2DB34A"/>
<stop offset="0.19" stop-color="#47B955"/>
<stop offset="0.55" stop-color="#72C468"/>
<stop offset="0.83" stop-color="#8DCA73"/>
<stop offset="1" stop-color="#97CD78"/>
</linearGradient>
<linearGradient id="paint13_linear_46_276" x1="-141" y1="773" x2="159" y2="773" gradientUnits="userSpaceOnUse">
<stop stop-color="#2DB34A"/>
<stop offset="0.19" stop-color="#47B955"/>
<stop offset="0.55" stop-color="#72C468"/>
<stop offset="0.83" stop-color="#8DCA73"/>
<stop offset="1" stop-color="#97CD78"/>
</linearGradient>
<linearGradient id="paint14_linear_46_276" x1="-94" y1="229" x2="206" y2="229" gradientUnits="userSpaceOnUse">
<stop stop-color="#2DB34A"/>
<stop offset="0.19" stop-color="#47B955"/>
<stop offset="0.55" stop-color="#72C468"/>
<stop offset="0.83" stop-color="#8DCA73"/>
<stop offset="1" stop-color="#97CD78"/>
</linearGradient>
<linearGradient id="paint15_linear_46_276" x1="-166" y1="485" x2="134" y2="485" gradientUnits="userSpaceOnUse">
<stop stop-color="#D47228"/>
<stop offset="0.17" stop-color="#DB812C"/>
<stop offset="1" stop-color="#FFCA3F"/>
</linearGradient>
<linearGradient id="paint16_linear_46_276" x1="-69" y1="421" x2="231" y2="421" gradientUnits="userSpaceOnUse">
<stop stop-color="#D47228"/>
<stop offset="0.17" stop-color="#DB812C"/>
<stop offset="1" stop-color="#FFCA3F"/>
</linearGradient>
<linearGradient id="paint17_linear_46_276" x1="-55" y1="261" x2="245" y2="261" gradientUnits="userSpaceOnUse">
<stop stop-color="#D47228"/>
<stop offset="0.17" stop-color="#DB812C"/>
<stop offset="1" stop-color="#FFCA3F"/>
</linearGradient>
<linearGradient id="paint18_linear_46_276" x1="-105" y1="709" x2="257" y2="709" gradientUnits="userSpaceOnUse">
<stop stop-color="#D47228"/>
<stop offset="0.17" stop-color="#DB812C"/>
<stop offset="1" stop-color="#FFCA3F"/>
</linearGradient>
<linearGradient id="paint19_linear_46_276" x1="-131" y1="549" x2="231" y2="549" gradientUnits="userSpaceOnUse">
<stop stop-color="#D47228"/>
<stop offset="0.17" stop-color="#DB812C"/>
<stop offset="1" stop-color="#FFCA3F"/>
</linearGradient>
<linearGradient id="paint20_linear_46_276" x1="-58" y1="165" x2="242" y2="165" gradientUnits="userSpaceOnUse">
<stop stop-color="#D47228"/>
<stop offset="0.17" stop-color="#DB812C"/>
<stop offset="1" stop-color="#FFCA3F"/>
</linearGradient>
<linearGradient id="paint21_linear_46_276" x1="-30" y1="133" x2="270" y2="133" gradientUnits="userSpaceOnUse">
<stop stop-color="#2DB34A"/>
<stop offset="0.19" stop-color="#47B955"/>
<stop offset="0.55" stop-color="#72C468"/>
<stop offset="0.83" stop-color="#8DCA73"/>
<stop offset="1" stop-color="#97CD78"/>
</linearGradient>
<linearGradient id="paint22_linear_46_276" x1="-88" y1="37" x2="212" y2="37" gradientUnits="userSpaceOnUse">
<stop stop-color="#D47228"/>
<stop offset="0.17" stop-color="#DB812C"/>
<stop offset="1" stop-color="#FFCA3F"/>
</linearGradient>
<linearGradient id="paint23_linear_46_276" x1="-124" y1="69" x2="236" y2="69" gradientUnits="userSpaceOnUse">
<stop stop-color="#7E1416"/>
<stop offset="0.77" stop-color="#D32D20"/>
<stop offset="1" stop-color="#EE3624"/>
</linearGradient>
<linearGradient id="paint24_linear_46_276" x1="-110" y1="101" x2="190" y2="101" gradientUnits="userSpaceOnUse">
<stop stop-color="#47C7F0"/>
<stop offset="0.31" stop-color="#68CFF1"/>
<stop offset="1" stop-color="#B1E2F5"/>
</linearGradient>
<linearGradient id="paint25_linear_46_276" x1="-180" y1="869" x2="120" y2="869" gradientUnits="userSpaceOnUse">
<stop stop-color="#2DB34A"/>
<stop offset="0.19" stop-color="#47B955"/>
<stop offset="0.55" stop-color="#72C468"/>
<stop offset="0.83" stop-color="#8DCA73"/>
<stop offset="1" stop-color="#97CD78"/>
</linearGradient>
<linearGradient id="paint26_linear_46_276" x1="-252" y1="965" x2="99" y2="965" gradientUnits="userSpaceOnUse">
<stop stop-color="#47C7F0"/>
<stop offset="0.31" stop-color="#68CFF1"/>
<stop offset="1" stop-color="#B1E2F5"/>
</linearGradient>
<linearGradient id="paint27_linear_46_276" x1="-221" y1="837" x2="141" y2="837" gradientUnits="userSpaceOnUse">
<stop stop-color="#D47228"/>
<stop offset="0.17" stop-color="#DB812C"/>
<stop offset="1" stop-color="#FFCA3F"/>
</linearGradient>
<linearGradient id="paint28_linear_46_276" x1="-242" y1="933" x2="120" y2="933" gradientUnits="userSpaceOnUse">
<stop stop-color="#D47228"/>
<stop offset="0.17" stop-color="#DB812C"/>
<stop offset="1" stop-color="#FFCA3F"/>
</linearGradient>
<linearGradient id="paint29_linear_46_276" x1="-110" y1="5" x2="190" y2="5" gradientUnits="userSpaceOnUse">
<stop stop-color="#2DB34A"/>
<stop offset="0.19" stop-color="#47B955"/>
<stop offset="0.55" stop-color="#72C468"/>
<stop offset="0.83" stop-color="#8DCA73"/>
<stop offset="1" stop-color="#97CD78"/>
</linearGradient>
<linearGradient id="paint30_linear_46_276" x1="-14" y1="901" x2="87" y2="901" gradientUnits="userSpaceOnUse">
<stop stop-color="#7E1416"/>
<stop offset="0.77" stop-color="#D32D20"/>
<stop offset="1" stop-color="#EE3624"/>
</linearGradient>
<linearGradient id="paint31_linear_46_276" x1="1524" y1="65" x2="1224" y2="65" gradientUnits="userSpaceOnUse">
<stop stop-color="#47C7F0"/>
<stop offset="0.31" stop-color="#68CFF1"/>
<stop offset="1" stop-color="#B1E2F5"/>
</linearGradient>
<linearGradient id="paint32_linear_46_276" x1="1659" y1="215" x2="1359" y2="215" gradientUnits="userSpaceOnUse">
<stop stop-color="#47C7F0"/>
<stop offset="0.31" stop-color="#68CFF1"/>
<stop offset="1" stop-color="#B1E2F5"/>
</linearGradient>
<linearGradient id="paint33_linear_46_276" x1="1472" y1="365" x2="1172" y2="365" gradientUnits="userSpaceOnUse">
<stop stop-color="#47C7F0"/>
<stop offset="0.31" stop-color="#68CFF1"/>
<stop offset="1" stop-color="#B1E2F5"/>
</linearGradient>
<linearGradient id="paint34_linear_46_276" x1="1531" y1="485" x2="1231" y2="485" gradientUnits="userSpaceOnUse">
<stop stop-color="#47C7F0"/>
<stop offset="0.31" stop-color="#68CFF1"/>
<stop offset="1" stop-color="#B1E2F5"/>
</linearGradient>
<linearGradient id="paint35_linear_46_276" x1="1541" y1="725" x2="1241" y2="725" gradientUnits="userSpaceOnUse">
<stop stop-color="#47C7F0"/>
<stop offset="0.31" stop-color="#68CFF1"/>
<stop offset="1" stop-color="#B1E2F5"/>
</linearGradient>
<linearGradient id="paint36_linear_46_276" x1="1581" y1="785" x2="1281" y2="785" gradientUnits="userSpaceOnUse">
<stop stop-color="#47C7F0"/>
<stop offset="0.31" stop-color="#68CFF1"/>
<stop offset="1" stop-color="#B1E2F5"/>
</linearGradient>
<linearGradient id="paint37_linear_46_276" x1="1556" y1="185" x2="1256" y2="185" gradientUnits="userSpaceOnUse">
<stop stop-color="#7E1416"/>
<stop offset="0.77" stop-color="#D32D20"/>
<stop offset="1" stop-color="#EE3624"/>
</linearGradient>
<linearGradient id="paint38_linear_46_276" x1="1606" y1="275" x2="1306" y2="275" gradientUnits="userSpaceOnUse">
<stop stop-color="#7E1416"/>
<stop offset="0.77" stop-color="#D32D20"/>
<stop offset="1" stop-color="#EE3624"/>
</linearGradient>
<linearGradient id="paint39_linear_46_276" x1="1636" y1="95" x2="1336" y2="95" gradientUnits="userSpaceOnUse">
<stop stop-color="#7E1416"/>
<stop offset="0.77" stop-color="#D32D20"/>
<stop offset="1" stop-color="#EE3624"/>
</linearGradient>
<linearGradient id="paint40_linear_46_276" x1="1531" y1="395" x2="1231" y2="395" gradientUnits="userSpaceOnUse">
<stop stop-color="#7E1416"/>
<stop offset="0.77" stop-color="#D32D20"/>
<stop offset="1" stop-color="#EE3624"/>
</linearGradient>
<linearGradient id="paint41_linear_46_276" x1="1592" y1="515" x2="1292" y2="515" gradientUnits="userSpaceOnUse">
<stop stop-color="#7E1416"/>
<stop offset="0.77" stop-color="#D32D20"/>
<stop offset="1" stop-color="#EE3624"/>
</linearGradient>
<linearGradient id="paint42_linear_46_276" x1="1556" y1="635" x2="1256" y2="635" gradientUnits="userSpaceOnUse">
<stop stop-color="#7E1416"/>
<stop offset="0.77" stop-color="#D32D20"/>
<stop offset="1" stop-color="#EE3624"/>
</linearGradient>
<linearGradient id="paint43_linear_46_276" x1="1636" y1="605" x2="1336" y2="605" gradientUnits="userSpaceOnUse">
<stop stop-color="#47C7F0"/>
<stop offset="0.31" stop-color="#68CFF1"/>
<stop offset="1" stop-color="#B1E2F5"/>
</linearGradient>
<linearGradient id="paint44_linear_46_276" x1="1562" y1="755" x2="1262" y2="755" gradientUnits="userSpaceOnUse">
<stop stop-color="#7E1416"/>
<stop offset="0.77" stop-color="#D32D20"/>
<stop offset="1" stop-color="#EE3624"/>
</linearGradient>
<linearGradient id="paint45_linear_46_276" x1="1636" y1="875" x2="1336" y2="875" gradientUnits="userSpaceOnUse">
<stop stop-color="#7E1416"/>
<stop offset="0.77" stop-color="#D32D20"/>
<stop offset="1" stop-color="#EE3624"/>
</linearGradient>
<linearGradient id="paint46_linear_46_276" x1="1590" y1="335" x2="1290" y2="335" gradientUnits="userSpaceOnUse">
<stop stop-color="#D47228"/>
<stop offset="0.17" stop-color="#DB812C"/>
<stop offset="1" stop-color="#FFCA3F"/>
</linearGradient>
<linearGradient id="paint47_linear_46_276" x1="1581" y1="455" x2="1281" y2="455" gradientUnits="userSpaceOnUse">
<stop stop-color="#D47228"/>
<stop offset="0.17" stop-color="#DB812C"/>
<stop offset="1" stop-color="#FFCA3F"/>
</linearGradient>
<linearGradient id="paint48_linear_46_276" x1="1606" y1="665" x2="1306" y2="665" gradientUnits="userSpaceOnUse">
<stop stop-color="#D47228"/>
<stop offset="0.17" stop-color="#DB812C"/>
<stop offset="1" stop-color="#FFCA3F"/>
</linearGradient>
<linearGradient id="paint49_linear_46_276" x1="1606" y1="575" x2="1306" y2="575" gradientUnits="userSpaceOnUse">
<stop stop-color="#D47228"/>
<stop offset="0.17" stop-color="#DB812C"/>
<stop offset="1" stop-color="#FFCA3F"/>
</linearGradient>
<linearGradient id="paint50_linear_46_276" x1="1518" y1="815" x2="1218" y2="815" gradientUnits="userSpaceOnUse">
<stop stop-color="#D47228"/>
<stop offset="0.17" stop-color="#DB812C"/>
<stop offset="1" stop-color="#FFCA3F"/>
</linearGradient>
<linearGradient id="paint51_linear_46_276" x1="1659" y1="905" x2="1359" y2="905" gradientUnits="userSpaceOnUse">
<stop stop-color="#D47228"/>
<stop offset="0.17" stop-color="#DB812C"/>
<stop offset="1" stop-color="#FFCA3F"/>
</linearGradient>
<linearGradient id="paint52_linear_46_276" x1="1603" y1="35" x2="1303" y2="35" gradientUnits="userSpaceOnUse">
<stop stop-color="#D47228"/>
<stop offset="0.17" stop-color="#DB812C"/>
<stop offset="1" stop-color="#FFCA3F"/>
</linearGradient>
<linearGradient id="paint53_linear_46_276" x1="1531" y1="155" x2="1231" y2="155" gradientUnits="userSpaceOnUse">
<stop stop-color="#D47228"/>
<stop offset="0.17" stop-color="#DB812C"/>
<stop offset="1" stop-color="#FFCA3F"/>
</linearGradient>
<linearGradient id="paint54_linear_46_276" x1="1556" y1="425" x2="1256" y2="425" gradientUnits="userSpaceOnUse">
<stop stop-color="#2DB34A"/>
<stop offset="0.19" stop-color="#47B955"/>
<stop offset="0.55" stop-color="#72C468"/>
<stop offset="0.83" stop-color="#8DCA73"/>
<stop offset="1" stop-color="#97CD78"/>
</linearGradient>
<linearGradient id="paint55_linear_46_276" x1="1509" y1="545" x2="1209" y2="545" gradientUnits="userSpaceOnUse">
<stop stop-color="#2DB34A"/>
<stop offset="0.19" stop-color="#47B955"/>
<stop offset="0.55" stop-color="#72C468"/>
<stop offset="0.83" stop-color="#8DCA73"/>
<stop offset="1" stop-color="#97CD78"/>
</linearGradient>
<linearGradient id="paint56_linear_46_276" x1="1456" y1="935" x2="1325" y2="935" gradientUnits="userSpaceOnUse">
<stop stop-color="#2DB34A"/>
<stop offset="0.19" stop-color="#47B955"/>
<stop offset="0.55" stop-color="#72C468"/>
<stop offset="0.83" stop-color="#8DCA73"/>
<stop offset="1" stop-color="#97CD78"/>
</linearGradient>
<linearGradient id="paint57_linear_46_276" x1="1581" y1="695" x2="1281" y2="695" gradientUnits="userSpaceOnUse">
<stop stop-color="#2DB34A"/>
<stop offset="0.19" stop-color="#47B955"/>
<stop offset="0.55" stop-color="#72C468"/>
<stop offset="0.83" stop-color="#8DCA73"/>
<stop offset="1" stop-color="#97CD78"/>
</linearGradient>
<linearGradient id="paint58_linear_46_276" x1="1603" y1="125" x2="1303" y2="125" gradientUnits="userSpaceOnUse">
<stop stop-color="#2DB34A"/>
<stop offset="0.19" stop-color="#47B955"/>
<stop offset="0.55" stop-color="#72C468"/>
<stop offset="0.83" stop-color="#8DCA73"/>
<stop offset="1" stop-color="#97CD78"/>
</linearGradient>
<linearGradient id="paint59_linear_46_276" x1="1625" y1="245" x2="1325" y2="245" gradientUnits="userSpaceOnUse">
<stop stop-color="#2DB34A"/>
<stop offset="0.19" stop-color="#47B955"/>
<stop offset="0.55" stop-color="#72C468"/>
<stop offset="0.83" stop-color="#8DCA73"/>
<stop offset="1" stop-color="#97CD78"/>
</linearGradient>
<linearGradient id="paint60_linear_46_276" x1="1648" y1="305" x2="1348" y2="305" gradientUnits="userSpaceOnUse">
<stop stop-color="#2DB34A"/>
<stop offset="0.19" stop-color="#47B955"/>
<stop offset="0.55" stop-color="#72C468"/>
<stop offset="0.83" stop-color="#8DCA73"/>
<stop offset="1" stop-color="#97CD78"/>
</linearGradient>
<linearGradient id="paint61_linear_46_276" x1="1668" y1="845" x2="1368" y2="845" gradientUnits="userSpaceOnUse">
<stop stop-color="#47C7F0"/>
<stop offset="0.31" stop-color="#68CFF1"/>
<stop offset="1" stop-color="#B1E2F5"/>
</linearGradient>
<linearGradient id="paint62_linear_46_276" x1="1648" y1="965" x2="1348" y2="965" gradientUnits="userSpaceOnUse">
<stop stop-color="#7E1416"/>
<stop offset="0.77" stop-color="#D32D20"/>
<stop offset="1" stop-color="#EE3624"/>
</linearGradient>
<linearGradient id="paint63_linear_46_276" x1="1625" y1="5" x2="1325" y2="5" gradientUnits="userSpaceOnUse">
<stop stop-color="#2DB34A"/>
<stop offset="0.19" stop-color="#47B955"/>
<stop offset="0.55" stop-color="#72C468"/>
<stop offset="0.83" stop-color="#8DCA73"/>
<stop offset="1" stop-color="#97CD78"/>
</linearGradient>
<clipPath id="clip0_46_276">
<rect x="-9" y="288" width="300" height="10" rx="5" fill="white"/>
</clipPath>
<clipPath id="clip1_46_276">
<rect x="-94" y="448" width="300" height="10" rx="5" fill="white"/>
</clipPath>
<clipPath id="clip2_46_276">
<rect x="-88" y="352" width="300" height="10" rx="5" fill="white"/>
</clipPath>
<clipPath id="clip3_46_276">
<rect x="-166" y="800" width="372" height="10" rx="5" fill="white"/>
</clipPath>
<clipPath id="clip4_46_276">
<rect x="-122" y="672" width="300" height="10" rx="5" fill="white"/>
</clipPath>
<clipPath id="clip5_46_276">
<rect x="-141" y="192" width="300" height="10" rx="5" fill="white"/>
</clipPath>
<clipPath id="clip6_46_276">
<rect x="-94" y="736" width="300" height="10" rx="5" fill="white"/>
</clipPath>
<clipPath id="clip7_46_276">
<rect x="-69" y="512" width="360" height="10" rx="5" fill="white"/>
</clipPath>
<clipPath id="clip8_46_276">
<rect x="-99" y="320" width="360" height="10" rx="5" fill="white"/>
</clipPath>
<clipPath id="clip9_46_276">
<rect x="-39" y="608" width="309" height="10" rx="5" fill="white"/>
</clipPath>
<clipPath id="clip10_46_276">
<rect x="-141" y="576" width="300" height="10" rx="5" fill="white"/>
</clipPath>
<clipPath id="clip11_46_276">
<rect x="-110" y="384" width="300" height="10" rx="5" fill="white"/>
</clipPath>
<clipPath id="clip12_46_276">
<rect x="-58" y="640" width="300" height="10" rx="5" fill="white"/>
</clipPath>
<clipPath id="clip13_46_276">
<rect x="-141" y="768" width="300" height="10" rx="5" fill="white"/>
</clipPath>
<clipPath id="clip14_46_276">
<rect x="-94" y="224" width="300" height="10" rx="5" fill="white"/>
</clipPath>
<clipPath id="clip15_46_276">
<rect x="-166" y="480" width="300" height="10" rx="5" fill="white"/>
</clipPath>
<clipPath id="clip16_46_276">
<rect x="-69" y="416" width="300" height="10" rx="5" fill="white"/>
</clipPath>
<clipPath id="clip17_46_276">
<rect x="-55" y="256" width="300" height="10" rx="5" fill="white"/>
</clipPath>
<clipPath id="clip18_46_276">
<rect x="-105" y="704" width="362" height="10" rx="5" fill="white"/>
</clipPath>
<clipPath id="clip19_46_276">
<rect x="-131" y="544" width="362" height="10" rx="5" fill="white"/>
</clipPath>
<clipPath id="clip20_46_276">
<rect x="-58" y="160" width="300" height="10" rx="5" fill="white"/>
</clipPath>
<clipPath id="clip21_46_276">
<rect x="-30" y="128" width="300" height="10" rx="5" fill="white"/>
</clipPath>
<clipPath id="clip22_46_276">
<rect x="-88" y="32" width="300" height="10" rx="5" fill="white"/>
</clipPath>
<clipPath id="clip23_46_276">
<rect x="-124" y="64" width="360" height="10" rx="5" fill="white"/>
</clipPath>
<clipPath id="clip24_46_276">
<rect x="-110" y="96" width="300" height="10" rx="5" fill="white"/>
</clipPath>
<clipPath id="clip25_46_276">
<rect x="-180" y="864" width="300" height="10" rx="5" fill="white"/>
</clipPath>
<clipPath id="clip26_46_276">
<rect x="-252" y="960" width="351" height="10" rx="5" fill="white"/>
</clipPath>
<clipPath id="clip27_46_276">
<rect x="-221" y="832" width="362" height="10" rx="5" fill="white"/>
</clipPath>
<clipPath id="clip28_46_276">
<rect x="-110" width="300" height="10" rx="5" fill="white"/>
</clipPath>
<clipPath id="clip29_46_276">
<rect x="-14" y="896" width="101" height="10" rx="5" fill="white"/>
</clipPath>
<clipPath id="clip30_46_276">
<rect width="300" height="10" fill="white" transform="translate(1224 60)"/>
</clipPath>
<clipPath id="clip31_46_276">
<rect width="300" height="10" fill="white" transform="translate(1359 210)"/>
</clipPath>
<clipPath id="clip32_46_276">
<rect width="300" height="10" fill="white" transform="translate(1172 360)"/>
</clipPath>
<clipPath id="clip33_46_276">
<rect width="300" height="10" fill="white" transform="translate(1231 480)"/>
</clipPath>
<clipPath id="clip34_46_276">
<rect width="300" height="10" fill="white" transform="translate(1241 720)"/>
</clipPath>
<clipPath id="clip35_46_276">
<rect width="300" height="10" fill="white" transform="translate(1281 780)"/>
</clipPath>
<clipPath id="clip36_46_276">
<rect width="300" height="10" fill="white" transform="translate(1256 180)"/>
</clipPath>
<clipPath id="clip37_46_276">
<rect width="300" height="10" fill="white" transform="translate(1306 270)"/>
</clipPath>
<clipPath id="clip38_46_276">
<rect width="300" height="10" fill="white" transform="translate(1336 90)"/>
</clipPath>
<clipPath id="clip39_46_276">
<rect width="300" height="10" fill="white" transform="translate(1231 390)"/>
</clipPath>
<clipPath id="clip40_46_276">
<rect width="300" height="10" fill="white" transform="translate(1292 510)"/>
</clipPath>
<clipPath id="clip41_46_276">
<rect width="300" height="10" fill="white" transform="translate(1256 630)"/>
</clipPath>
<clipPath id="clip42_46_276">
<rect width="300" height="10" fill="white" transform="translate(1336 600)"/>
</clipPath>
<clipPath id="clip43_46_276">
<rect width="300" height="10" fill="white" transform="translate(1262 750)"/>
</clipPath>
<clipPath id="clip44_46_276">
<rect width="300" height="10" fill="white" transform="translate(1336 870)"/>
</clipPath>
<clipPath id="clip45_46_276">
<rect width="300" height="10" fill="white" transform="translate(1290 330)"/>
</clipPath>
<clipPath id="clip46_46_276">
<rect width="300" height="10" fill="white" transform="translate(1281 450)"/>
</clipPath>
<clipPath id="clip47_46_276">
<rect width="300" height="10" fill="white" transform="translate(1306 660)"/>
</clipPath>
<clipPath id="clip48_46_276">
<rect width="300" height="10" fill="white" transform="translate(1306 570)"/>
</clipPath>
<clipPath id="clip49_46_276">
<rect width="300" height="10" fill="white" transform="translate(1218 810)"/>
</clipPath>
<clipPath id="clip50_46_276">
<rect width="300" height="10" fill="white" transform="translate(1359 900)"/>
</clipPath>
<clipPath id="clip51_46_276">
<rect width="300" height="10" fill="white" transform="translate(1303 30)"/>
</clipPath>
<clipPath id="clip52_46_276">
<rect width="300" height="10" fill="white" transform="translate(1231 150)"/>
</clipPath>
<clipPath id="clip53_46_276">
<rect width="300" height="10" fill="white" transform="translate(1256 420)"/>
</clipPath>
<clipPath id="clip54_46_276">
<rect width="300" height="10" fill="white" transform="translate(1209 540)"/>
</clipPath>
<clipPath id="clip55_46_276">
<rect width="131" height="10" fill="white" transform="translate(1325 930)"/>
</clipPath>
<clipPath id="clip56_46_276">
<rect width="300" height="10" fill="white" transform="translate(1281 690)"/>
</clipPath>
<clipPath id="clip57_46_276">
<rect width="300" height="10" fill="white" transform="translate(1303 120)"/>
</clipPath>
<clipPath id="clip58_46_276">
<rect width="300" height="10" fill="white" transform="translate(1325 240)"/>
</clipPath>
<clipPath id="clip59_46_276">
<rect width="300" height="10" fill="white" transform="translate(1348 300)"/>
</clipPath>
<clipPath id="clip60_46_276">
<rect width="300" height="10" fill="white" transform="translate(1368 840)"/>
</clipPath>
<clipPath id="clip61_46_276">
<rect width="300" height="10" fill="white" transform="translate(1348 960)"/>
</clipPath>
<clipPath id="clip62_46_276">
<rect width="300" height="10" fill="white" transform="translate(1325)"/>
</clipPath>
</defs>
</svg>
