<?xml version="1.0" encoding="UTF-8"?>
<svg id="Layer_2" data-name="Layer 2" xmlns="http://www.w3.org/2000/svg" xmlns:xlink="http://www.w3.org/1999/xlink" viewBox="0 0 141.06 139.46">
  <defs>
    <style>
      .cls-1 {
        fill: url(#radial-gradient);
      }

      .cls-2 {
        fill: url(#radial-gradient-3);
      }

      .cls-3 {
        fill: url(#radial-gradient-2);
      }

      .cls-4 {
        fill: url(#radial-gradient-4);
      }
    </style>
    <radialGradient id="radial-gradient" cx="31.24" cy="8.05" fx="31.24" fy="8.05" r="37.21" gradientTransform="translate(5.41 26.43) scale(.91)" gradientUnits="userSpaceOnUse">
      <stop offset="0" stop-color="#f26a6b"/>
      <stop offset="1" stop-color="#ee2525"/>
    </radialGradient>
    <radialGradient id="radial-gradient-2" cx="31.24" cy="87.48" fx="31.24" fy="87.48" r="37.21" gradientTransform="translate(5.41 26.43) scale(.91)" gradientUnits="userSpaceOnUse">
      <stop offset="0" stop-color="#97d8e9"/>
      <stop offset="1" stop-color="#48ade2"/>
    </radialGradient>
    <radialGradient id="radial-gradient-3" cx="110.8" cy="8.44" fx="110.8" fy="8.44" r="37.21" gradientTransform="translate(5.41 26.43) scale(.91)" gradientUnits="userSpaceOnUse">
      <stop offset="0" stop-color="#97cd78"/>
      <stop offset=".9" stop-color="#37b54e"/>
      <stop offset="1" stop-color="#2db34a"/>
    </radialGradient>
    <radialGradient id="radial-gradient-4" cx="112.44" cy="87.48" fx="112.44" fy="87.48" r="37.21" gradientTransform="translate(5.41 26.43) scale(.91)" gradientUnits="userSpaceOnUse">
      <stop offset="0" stop-color="#f4f2ab"/>
      <stop offset="1" stop-color="#faef5d"/>
    </radialGradient>
  </defs>
  <g id="Layer_1-2" data-name="Layer 1">
    <g>
      <path class="cls-1" d="M5,0h57.46c2.76,0,5,2.24,5,5v27.46c0,19.32-15.68,35-35,35H5c-2.76,0-5-2.24-5-5V5C0,2.24,2.24,0,5,0Z"/>
      <path class="cls-3" d="M5,72h27.46c19.32,0,35,15.68,35,35v27.46c0,2.76-2.24,5-5,5H5c-2.76,0-5-2.24-5-5v-57.46c0-2.76,2.24-5,5-5Z"/>
      <path class="cls-2" d="M77.12.35h57.46c2.76,0,5,2.24,5,5v57.46c0,2.76-2.24,5-5,5h-27.46c-19.32,0-35-15.68-35-35V5.35c0-2.76,2.24-5,5-5Z"/>
      <path class="cls-4" d="M108.61,72h27.46c2.76,0,5,2.24,5,5v57.46c0,2.76-2.24,5-5,5h-57.46c-2.76,0-5-2.24-5-5v-27.46c0-19.32,15.68-35,35-35Z"/>
    </g>
  </g>
</svg>