<?xml version="1.0" encoding="UTF-8"?>
<svg id="Layer_2" data-name="Layer 2" xmlns="http://www.w3.org/2000/svg" xmlns:xlink="http://www.w3.org/1999/xlink" viewBox="0 0 158.44 158.44">
  <defs>
    <style>
      .cls-1 {
        fill: url(#radial-gradient);
      }

      .cls-2 {
        fill: url(#radial-gradient-3);
      }

      .cls-3 {
        fill: url(#radial-gradient-2);
      }

      .cls-4 {
        fill: url(#radial-gradient-4);
      }
    </style>
    <radialGradient id="radial-gradient" cx="39.93" cy="17.54" fx="39.93" fy="17.54" r="37.21" gradientTransform="translate(6.22 27.32) scale(.91)" gradientUnits="userSpaceOnUse">
      <stop offset="0" stop-color="#f26a6b"/>
      <stop offset="1" stop-color="#ee2525"/>
    </radialGradient>
    <radialGradient id="radial-gradient-2" cx="39.93" cy="96.97" fx="39.93" fy="96.97" r="37.21" gradientTransform="translate(6.22 27.32) scale(.91)" gradientUnits="userSpaceOnUse">
      <stop offset="0" stop-color="#97d8e9"/>
      <stop offset="1" stop-color="#48ade2"/>
    </radialGradient>
    <radialGradient id="radial-gradient-3" cx="119.49" cy="17.93" fx="119.49" fy="17.93" r="37.21" gradientTransform="translate(6.22 27.32) scale(.91)" gradientUnits="userSpaceOnUse">
      <stop offset="0" stop-color="#97cd78"/>
      <stop offset=".9" stop-color="#37b54e"/>
      <stop offset="1" stop-color="#2db34a"/>
    </radialGradient>
    <radialGradient id="radial-gradient-4" cx="121.13" cy="96.97" fx="121.13" fy="96.97" r="37.21" gradientTransform="translate(6.22 27.32) scale(.91)" gradientUnits="userSpaceOnUse">
      <stop offset="0" stop-color="#f4f2ab"/>
      <stop offset="1" stop-color="#faef5d"/>
    </radialGradient>
  </defs>
  <g id="Layer_1-2" data-name="Layer 1">
    <rect width="158.44" height="158.44"/>
    <g>
      <path class="cls-1" d="M13.69,9.49h57.46c2.76,0,5,2.24,5,5v27.46c0,19.32-15.68,35-35,35H13.69c-2.76,0-5-2.24-5-5V14.49c0-2.76,2.24-5,5-5Z"/>
      <path class="cls-3" d="M13.69,81.5h27.46c19.32,0,35,15.68,35,35v27.46c0,2.76-2.24,5-5,5H13.69c-2.76,0-5-2.24-5-5v-57.46c0-2.76,2.24-5,5-5Z"/>
      <path class="cls-2" d="M85.81,9.84h57.46c2.76,0,5,2.24,5,5v57.46c0,2.76-2.24,5-5,5h-27.46c-19.32,0-35-15.68-35-35V14.84c0-2.76,2.24-5,5-5Z"/>
      <path class="cls-4" d="M117.3,81.5h27.46c2.76,0,5,2.24,5,5v57.46c0,2.76-2.24,5-5,5h-57.46c-2.76,0-5-2.24-5-5v-27.46c0-19.32,15.68-35,35-35Z"/>
    </g>
  </g>
</svg>