<svg width="87" height="86" viewBox="0 0 87 86" fill="none" xmlns="http://www.w3.org/2000/svg">
<g filter="url(#filter0_d_204_237)">
<path d="M61.1684 30.2963C62.7114 31.1753 63.6543 32.7917 63.6543 34.5498V50.5145C63.6543 52.2726 62.6828 53.9172 61.1112 54.7679L46.2243 64.1256C44.7099 64.9479 42.9097 64.9479 41.3953 64.1256L26.5084 54.7679C24.9368 53.9172 23.9653 52.2726 23.9653 50.5145V34.5498C23.9653 32.7917 24.9368 31.147 26.5084 30.2963L41.3953 21.5908C42.9383 20.7401 44.8242 20.7401 46.3672 21.5908L59.0539 29.0202L61.197 30.3246L61.1684 30.2963Z" stroke="url(#paint0_linear_204_237)" stroke-width="2" stroke-linecap="round" stroke-linejoin="round"/>
</g>
<g filter="url(#filter1_d_204_237)">
<path d="M41.5953 42.8298H43.7955V51.592H45.9957" stroke="url(#paint1_linear_204_237)" stroke-width="2" stroke-linecap="round" stroke-linejoin="round"/>
</g>
<rect x="5.5" y="5.5" width="76" height="75" rx="37.5" stroke="url(#paint2_linear_204_237)" stroke-width="11"/>
<defs>
<filter id="filter0_d_204_237" x="20.9653" y="17.9528" width="45.689" height="49.7895" filterUnits="userSpaceOnUse" color-interpolation-filters="sRGB">
<feFlood flood-opacity="0" result="BackgroundImageFix"/>
<feColorMatrix in="SourceAlpha" type="matrix" values="0 0 0 0 0 0 0 0 0 0 0 0 0 0 0 0 0 0 127 0" result="hardAlpha"/>
<feOffset/>
<feGaussianBlur stdDeviation="1"/>
<feColorMatrix type="matrix" values="0 0 0 0 0.976471 0 0 0 0 0.976471 0 0 0 0 0.980392 0 0 0 0.6 0"/>
<feBlend mode="normal" in2="BackgroundImageFix" result="effect1_dropShadow_204_237"/>
<feBlend mode="normal" in="SourceGraphic" in2="effect1_dropShadow_204_237" result="shape"/>
</filter>
<filter id="filter1_d_204_237" x="38.5953" y="39.8298" width="10.4004" height="14.7621" filterUnits="userSpaceOnUse" color-interpolation-filters="sRGB">
<feFlood flood-opacity="0" result="BackgroundImageFix"/>
<feColorMatrix in="SourceAlpha" type="matrix" values="0 0 0 0 0 0 0 0 0 0 0 0 0 0 0 0 0 0 127 0" result="hardAlpha"/>
<feOffset/>
<feGaussianBlur stdDeviation="1"/>
<feColorMatrix type="matrix" values="0 0 0 0 0.976471 0 0 0 0 0.976471 0 0 0 0 0.980392 0 0 0 0.6 0"/>
<feBlend mode="normal" in2="BackgroundImageFix" result="effect1_dropShadow_204_237"/>
<feBlend mode="normal" in="SourceGraphic" in2="effect1_dropShadow_204_237" result="shape"/>
</filter>
<linearGradient id="paint0_linear_204_237" x1="21.0794" y1="-6.00002" x2="66.5117" y2="-6.00002" gradientUnits="userSpaceOnUse">
<stop stop-color="#D47228"/>
<stop offset="0.17" stop-color="#DB812C"/>
<stop offset="1" stop-color="#FFCA3F"/>
</linearGradient>
<linearGradient id="paint1_linear_204_237" x1="38.738" y1="47.2251" x2="48.8531" y2="47.2251" gradientUnits="userSpaceOnUse">
<stop stop-color="#D47228"/>
<stop offset="0.17" stop-color="#DB812C"/>
<stop offset="1" stop-color="#FFCA3F"/>
</linearGradient>
<linearGradient id="paint2_linear_204_237" x1="76" y1="43" x2="11" y2="43" gradientUnits="userSpaceOnUse">
<stop stop-color="#FFC917"/>
<stop offset="1" stop-color="#E28800"/>
</linearGradient>
</defs>
</svg>
