<svg width="347" height="98" viewBox="0 0 347 98" fill="none" xmlns="http://www.w3.org/2000/svg">
<g filter="url(#filter0_d_36_159)">
<path d="M326.639 11.6503H20.5326C15.8076 11.6503 11.9773 15.4857 11.9773 20.2168V77.8974C11.9773 82.6285 15.8076 86.4639 20.5326 86.4639H326.639C331.363 86.4639 335.194 82.6285 335.194 77.8974V20.2168C335.194 15.4857 331.363 11.6503 326.639 11.6503Z" stroke="url(#paint0_linear_36_159)" stroke-width="3" stroke-miterlimit="10"/>
</g>
<path d="M278.558 38.9202H320.251" stroke="url(#paint1_linear_36_159)" stroke-width="2" stroke-linecap="round" stroke-linejoin="round"/>
<path d="M285.488 69.074L278.53 62.1066L285.488 55.1393" stroke="url(#paint2_linear_36_159)" stroke-width="2" stroke-linecap="round" stroke-linejoin="round"/>
<path d="M285.488 31.9528L278.53 38.9202L285.488 45.8876" stroke="url(#paint3_linear_36_159)" stroke-width="2" stroke-linecap="round" stroke-linejoin="round"/>
<path d="M278.558 62.1066H320.251" stroke="url(#paint4_linear_36_159)" stroke-width="2" stroke-linecap="round" stroke-linejoin="round"/>
<path d="M39.3255 32.5527H50.9036L59.7725 54.1116L85.6378 32.5527H97.2159L82.9857 68.4461H71.4076L79.9629 46.9158L62.7098 61.2788H51.1317L45.2286 46.9158L36.6734 68.4461H25.0953L39.3255 32.5527Z" fill="url(#paint5_linear_36_159)"/>
<path d="M103.262 32.5525H145.753L135.173 39.7197H112.016L109.193 46.9155H132.349L129.469 54.0828H106.313L103.49 61.25H126.617L131.522 68.4173H89.0314L103.262 32.5239V32.5525Z" fill="url(#paint6_linear_36_159)"/>
<path d="M157.844 42.8893L147.692 68.4744H136.114L150.344 32.5811H161.922L174.954 58.1661L185.107 32.5811H196.685L182.454 68.4744H170.876L157.844 42.8893Z" fill="url(#paint7_linear_36_159)"/>
<path d="M195.772 68.4744L190.924 61.3072L202.303 32.5811H213.881L202.502 61.3072H225.658L237.037 32.5811H248.615L237.265 61.3072L226.685 68.4744H195.801H195.772Z" fill="url(#paint8_linear_36_159)"/>
<defs>
<filter id="filter0_d_36_159" x="8.47733" y="8.15033" width="330.216" height="81.8135" filterUnits="userSpaceOnUse" color-interpolation-filters="sRGB">
<feFlood flood-opacity="0" result="BackgroundImageFix"/>
<feColorMatrix in="SourceAlpha" type="matrix" values="0 0 0 0 0 0 0 0 0 0 0 0 0 0 0 0 0 0 127 0" result="hardAlpha"/>
<feOffset/>
<feGaussianBlur stdDeviation="1"/>
<feColorMatrix type="matrix" values="0 0 0 0 0.976471 0 0 0 0 0.976471 0 0 0 0 0.980392 0 0 0 0.6 0"/>
<feBlend mode="normal" in2="BackgroundImageFix" result="effect1_dropShadow_36_159"/>
<feBlend mode="normal" in="SourceGraphic" in2="effect1_dropShadow_36_159" result="shape"/>
</filter>
<linearGradient id="paint0_linear_36_159" x1="9.12558" y1="49.0571" x2="338.046" y2="49.0571" gradientUnits="userSpaceOnUse">
<stop stop-color="#7E1416"/>
<stop offset="0.77" stop-color="#D32D20"/>
<stop offset="1" stop-color="#EE3624"/>
</linearGradient>
<linearGradient id="paint1_linear_36_159" x1="-nan" y1="-nan" x2="-nan" y2="-nan" gradientUnits="userSpaceOnUse">
<stop stop-color="#7E1416"/>
<stop offset="0.77" stop-color="#D32D20"/>
<stop offset="1" stop-color="#EE3624"/>
</linearGradient>
<linearGradient id="paint2_linear_36_159" x1="275.706" y1="62.1066" x2="288.34" y2="62.1066" gradientUnits="userSpaceOnUse">
<stop stop-color="#7E1416"/>
<stop offset="0.77" stop-color="#D32D20"/>
<stop offset="1" stop-color="#EE3624"/>
</linearGradient>
<linearGradient id="paint3_linear_36_159" x1="275.706" y1="38.9202" x2="288.34" y2="38.9202" gradientUnits="userSpaceOnUse">
<stop stop-color="#7E1416"/>
<stop offset="0.77" stop-color="#D32D20"/>
<stop offset="1" stop-color="#EE3624"/>
</linearGradient>
<linearGradient id="paint4_linear_36_159" x1="-nan" y1="-nan" x2="-nan" y2="-nan" gradientUnits="userSpaceOnUse">
<stop stop-color="#7E1416"/>
<stop offset="0.77" stop-color="#D32D20"/>
<stop offset="1" stop-color="#EE3624"/>
</linearGradient>
<linearGradient id="paint5_linear_36_159" x1="25.0953" y1="50.5137" x2="97.2729" y2="50.5137" gradientUnits="userSpaceOnUse">
<stop stop-color="#7E1416"/>
<stop offset="0.77" stop-color="#D32D20"/>
<stop offset="1" stop-color="#EE3624"/>
</linearGradient>
<linearGradient id="paint6_linear_36_159" x1="89.0314" y1="50.5134" x2="145.724" y2="50.5134" gradientUnits="userSpaceOnUse">
<stop stop-color="#7E1416"/>
<stop offset="0.77" stop-color="#D32D20"/>
<stop offset="1" stop-color="#EE3624"/>
</linearGradient>
<linearGradient id="paint7_linear_36_159" x1="136.114" y1="50.5135" x2="196.685" y2="50.5135" gradientUnits="userSpaceOnUse">
<stop stop-color="#7E1416"/>
<stop offset="0.77" stop-color="#D32D20"/>
<stop offset="1" stop-color="#EE3624"/>
</linearGradient>
<linearGradient id="paint8_linear_36_159" x1="190.924" y1="50.5135" x2="248.615" y2="50.5135" gradientUnits="userSpaceOnUse">
<stop stop-color="#7E1416"/>
<stop offset="0.77" stop-color="#D32D20"/>
<stop offset="1" stop-color="#EE3624"/>
</linearGradient>
</defs>
</svg>
