<?xml version="1.0" encoding="UTF-8"?>
<svg id="Layer_2" data-name="Layer 2" xmlns="http://www.w3.org/2000/svg" xmlns:xlink="http://www.w3.org/1999/xlink" viewBox="0 0 62.5 62.5">
  <defs>
    <style>
      .cls-1 {
        fill: #000000ff;
      }

      .cls-2 {
        opacity: .3;
      }

      .cls-3 {
        fill: #fbfbfbff;
      }

      .cls-4 {
        fill: url(#linear-gradient-2);
      }

      .cls-4, .cls-5 {
        stroke-width: 3px;
      }

      .cls-4, .cls-5, .cls-6 {
        stroke: #000000ff;
        stroke-miterlimit: 10;
      }

      .cls-5 {
        fill: url(#linear-gradient);
      }

      .cls-7 {
        opacity: .2;
      }

      .cls-6 {
        fill: none;
      }
    </style>
    <linearGradient id="linear-gradient" x1="-105.61" y1="150.37" x2="-105.61" y2="133.17" gradientTransform="translate(85.51 -110.52) scale(.51 1)" gradientUnits="userSpaceOnUse">
      <stop offset="0" stop-color="#ffd100"/>
      <stop offset=".12" stop-color="#f7b00b"/>
      <stop offset=".29" stop-color="#ed8919"/>
      <stop offset=".42" stop-color="#e87021"/>
      <stop offset=".5" stop-color="#e66825"/>
      <stop offset=".58" stop-color="#e87022"/>
      <stop offset=".71" stop-color="#ed891b"/>
      <stop offset=".88" stop-color="#f6b010"/>
      <stop offset="1" stop-color="#fed107"/>
    </linearGradient>
    <linearGradient id="linear-gradient-2" x1="129.86" y1="-94.35" x2="129.86" y2="-111.55" gradientTransform="translate(-35.47 134.2) scale(.51 1)" xlink:href="#linear-gradient"/>
  </defs>
  <g id="Layer_1-2" data-name="Layer 1">
    <g>
      <text/>
      <g>
        <text/>
        <g>
          <rect class="cls-5" x="-7.26" y="22.65" width="77.03" height="17.2" rx="8.6" ry="8.6" transform="translate(31.25 75.45) rotate(-135)"/>
          <rect class="cls-6" x="-4.26" y="25.05" width="71.02" height="12.41" rx="6.21" ry="6.21" transform="translate(31.25 75.45) rotate(-135)"/>
        </g>
        <rect class="cls-1" x="20.17" y="21.97" width="22.37" height="18.35" transform="translate(31.5 75.35) rotate(-135)"/>
        <g>
          <rect class="cls-4" x="-7.26" y="22.65" width="77.03" height="17.2" rx="8.6" ry="8.6" transform="translate(-12.95 31.25) rotate(-45)"/>
          <rect class="cls-6" x="-4.26" y="25.05" width="71.02" height="12.41" rx="6.21" ry="6.21" transform="translate(-12.95 31.25) rotate(-45)"/>
        </g>
      </g>
      <g class="cls-7">
        <rect class="cls-3" x="47.67" y="14.55" width="10.45" height="1.05" rx=".53" ry=".53" transform="translate(4.83 41.81) rotate(-45)"/>
      </g>
      <g class="cls-7">
        <rect class="cls-3" x="36.87" y="49.35" width="12.34" height="1.05" rx=".53" ry=".53" transform="translate(47.88 -15.83) rotate(45)"/>
      </g>
      <g class="cls-7">
        <rect class="cls-3" x="4.9" y="54.83" width="4.89" height="1.05" rx=".53" ry=".53" transform="translate(-26.6 99.69) rotate(-135)"/>
      </g>
      <g class="cls-2">
        <rect class="cls-3" x="12.01" y="8.91" width="8.75" height="1.05" rx=".53" ry=".53" transform="translate(11.47 -8.82) rotate(45)"/>
      </g>
      <g class="cls-7">
        <rect class="cls-3" x="39.28" y="39.03" width="6.13" height=".93" rx=".46" ry=".46" transform="translate(-15.52 41.51) rotate(-45)"/>
      </g>
      <g class="cls-7">
        <rect class="cls-3" x="14.74" y="37.21" width="6.13" height=".68" rx=".34" ry=".34" transform="translate(-21.34 23.59) rotate(-45)"/>
      </g>
      <g class="cls-7">
        <rect class="cls-3" x="11.48" y="20.24" width="4.89" height="1.05" rx=".53" ry=".53" transform="translate(9.1 45.29) rotate(-135)"/>
      </g>
    </g>
  </g>
</svg>